<?xml version="1.0" encoding="UTF-8"?>
<svg version="1.1" viewBox="0 0 2048 942" width="1280" height="589" xmlns="http://www.w3.org/2000/svg">
<path transform="translate(0)" d="m0 0h2048v942h-2048z" fill="#B4B6B3"/>
<path transform="translate(1518,160)" d="m0 0h18l24 2 102 1 10 2 3 2 1 3v34l-1 26-1 5 13-2 48-6 11-1h12l4 4 3 28 2 30 2 4h51l17 2 2 1v80l-3 2h-73l-19 1h-17l-1 13-7 41 4 2 8 6 8 7 9 6 6 7 5 17v2h2l-2 10 17 2 16 3 7 3 2 2-2 23-7 42-5 24-1 2 4-2 7 5 1 3 2 1v2h2v2l6 1h20l-2 2-8 2h-12l-11-2-5 3-3 5-1 11-1 4 4 13 1 3 5 2 3 3v3l-9 3-4 4h-2l-1 11 3 7 1 3v6l-3 2h-3l-8-7-4 1-2 3h-2l-1 7h-2l-2 11-5 5h-9l-14 2-10 5-3 3-1 7h-2v2l-4 2-12 2-1 3-6 3-2 4-2 1-11 1-5 7-9 4h-5l-1 2h-2l-1 4-1 2v12l3 15 1 7-2-2-8-25-7 3-4 5-3 5-5 3v14l-2-4-1-3-3 3-2 10-1 16-1 6-5-1-2-7-2-10-4-15v-3l-6-1h-10l-4 9-4-1-1-10 3-13-2-9-4-4-6-4-4-8-1-5-3-2-12-1-7 1-3-1 1-10-2-7-3-5-3-4v-2h-2v-3l-10-2v-2l-13 1h-11v-1l21-3 16-4 3-3 2-4v-7l1-9v-6l-5-1 2-2 6-1-1-5 5 2 11 8 5 5 7 11 5 3 8 10 1 3h2v2h2l8 10 5 7v2h2l3 3v2l5 2 4 2h10l12-3 6-4 8-3-1-7-12-31-6-2-3-3v-2l5-1-1-9 3 2 4-2-7-3-12-23-10-15-8-9-9-12-11-14-9-9-8-4h-10l-10 2h-8l-2-3v-3l6-3 5-5-1-6-2-3 1-3 15 11 13 10 10 9 21 24 9 11 9 13 8 16h3l6 7 6 4h13l9-4 12-5 6-3 1-12 11-7 6-1 5-10 1-5h-3l-2-4-2-5-1-6h3l-4-7-6-3-4-5-5-3v-2l-31-4-14-3-3-6-1-6v-18l6-36 4-18 1-8 3-3 3-1h12l21 4-2-7 2-5-4-2-1-3h6 3l4-4 2-12-24-4-44-4-35-3-2-1-3 21-5 26-2 4-7-1-26-5-33-3-13-1-4-1 3 33 2 38-2 3-32 1-31 4-48 8-25 3h-6l-4-2-5-10-3-12-3-27-2-41 5-5 8-2 10-1 24-1 36-4 31-4h6v-10l4-26 5-24 3-2h14l25 5 49 6h2l5-32 7-34 3-3 9-1 19 3 27 5 67 8v-27l1-13 1-2-21 4-23 3h-9l-5-5-4-15-2-17v-11h-35l-44 2h-28v14l-2 39-1 11-1 2-16-1-15-1h-22l-47 2 1 21 1 17v15l-1 2-30 1-33 4-47 8h-3v8l-7 41-3 15-3 3-23-5-23-3-25-2h-13l-4 25-1 3 14 2 7 3v11l-7 43-4 19-5 1-23-5-27-3-14-1-2 57-2 28-2 4-20-2-14-1h-31l-45 2h-44l-5-2-4-8-2-9-1-12v-21l2-33 1-4-9 2-61 10-16 2h-13l-5-5-4-11-3-18-2-23-1-29-1-4 3-5 3-2-50 2-3 17-8 43-2 9-2 2-7-1-24-5-22-3-62-5h-6l-8 44-2 5-10-1-20-4-29-3-24-2 3 36 1 19v17l-1 1-25 1-28 3-61 10-16 2h-14l-5-6-4-11-3-19-2-28-1-28 4-4 6-2 7-1 37-2 65-8 3-26 7-34 5-2 14 1 26 5 49 6v-9l5-30 4-19 1-8 3-3 3-1h12l37 7 49 6 21 3v-16l1-26-29 5-21 2-4-2-4-8-3-15-2-24-45 1-61 3-2 48-1 13-2 4-21-2h-44l-19 1h-16l2 26 1 27-2 3-34 1-30 4-42 7h-6l-1 13-6 35-4 18-5 1-24-5-25-3-27-2-6-1-1 13-7 38-2 2-10-2-24-4-56-5-11-2-3-3-1-3v-19l4-24 4-18 3-2h11l26 5 25 3 4 1 2-21 7-36 2-6 5-2 12 1 26 5 40 5-2-19-2-35h-49l-44 2 3 37v22l-1 1-39 2-52 9-15 2h-14l-4-5-3-9-3-20-2-38v-5l6-4 5-1 34-2 41-5-1-8v-39l3-41 4-4 3-1h26l11 1 23 1h78l18 2 5 5v32l-1 28-1 14 34-3 48-6h6l1-27 2-23 5-3 13-1 25 2h67l2 1v-45l2-24v-10l3-5 5-2h25l11 1 24 1h76l14 1 9 3 1 1 1 15-1 43-1 9 67-8h18l2 2 3 21 3 42 59 1 11 2 2 7v20l-1 27-2 23 38-5h10l1-25 2-23 3-3 10-1-3-15-2-23-1-27 4-4 9-2 34-2h8l-1-10 5-4 10-2 23-1 35-4 14-1-2-13v-29l3-42 1-6 4-3 5-1h19l23 2 103 1 10 2 3 4v42l-1 23-1 9 28-2 57-7 3-1 2-34 1-14 4-3 3-1h19l11 1 75 1v-38l3-43 5-4z" fill="#020203"/>
<path transform="translate(1592,434)" d="m0 0 62 5 26 3 17 3 1 2-2 11-7 6-7-2 5 5-1 7 1 5-9-1-12-2h-12l-5 3-3 17-5 26-3 22v15l2 9 1 2 14 3 26 3 5 2 3 3 6 5 3 3 4 2 3 4v3h-3l4 9 1 6h3v5l-5 10-4 2-5 1-8 5-1 12-12 6-7 3-9 4h-13l-9-7-3-3v-2h-3l-6-9-5-10-7-10-9-11-8-9v-2l-4-2-7-8-13-13-11-8-15-11 2 5 1 6-5 5-5 3h-2l2 6 18-3h10l8 4 12 12 20 26 9 11 9 15 9 17v2l7 2 1 2-6 2-1-1v7l-1 2-4-1 4 5 5 1 5 12 8 20 1 7-9 4-9 5-9 2h-10l-9-5v-2l-3-1v-2h-2l-10-14-3-3v-2h-2v-2h-2l-11-14-5-3-8-13-9-6-8-5v4l-6 2 4 4v10l-1 4v6l-2 6-11 4-19 4h13v2h6l4 2v3h2l4 6 3 5 2 7-1 8-1 2 11-1 11 1 5 5 1 5 2 6 4 2 5 3 3 5 1 8-3 12 1 10h3l3-8 1-1h10l6 2 5 18 3 15 1 2 4 1v-13l2-16 4-8 3 3v-8l3-3h3l2-5 6-7 6-2 3 7 6 18-3-12-1-7v-12l3-6h2l1-3 7-1 8-4 3-5 1-1 11-1 2-1 3-5 5-2 3-3 14-3v-2h2v-7l7-6 7-3 17-2h6l4-4 3-11h2l1-7 4-4 4-1 9 8 2-2h3l-1-8-2-2-2-6 1-8 1-3 5-2 1-3 5-2h4l-3-5-5-3-3-6-3-11 2-9v-6l1-2h2l1-3 5-3 11 2h12l8-2h-18l-6-2v-2h-2v-2l-3-1-2-4-6-3-3 1 5-26 8-49 1-13h2l1-3 3 10 5 10 1 5-2 4 4 7-4 1-4-2 1 4h2v2h5v-4l10-3 3 1 3 4h11l10 5v2l7 1 12 9 1 6-3 13h2v11l-1 2v8l-1 7-1 11v23h-2l1 5h-2l1 2v8h-2v7h-2l1 4-4 20 1 17 1 6-3 7-3 2-3 7-5 5-5 12-8 12-5 6-4 1-2-2-2 10-7 14-2 5h-2l-6 10h-2l-1 5-4 7-5 7-6 2-5 3-2 7 1 6-5 10-1 8-5 6h-2l-2 7-2 3-2 5-3 1v2l2 1h-3v2l1 5-3 6-5 5 1 6-2 13-4 7-3 9-1 7-1 8h-247v-14l-2-11-2-14-5-19-9-25-6-23-5-23-9-48-2-20-3-18-3-13v-18l3-31 3-9 12-14h2l1-3h2v-2l5-5 10-8h2l5-10 17-12 6-4h2v-2l3-2h3l1-3-7 2-22 16h-2l1-8 8-26 2-20v-13l-2-35-2-25v-8l42 3 25 4 12 3h4l3-13 6-34z" fill="#EAC7B7"/>
<path transform="translate(1545,555)" d="m0 0 7 4 10 8 12 9 10 9 21 24 9 11 9 13 8 16h3l6 7 6 4h13l9-4 12-5 6-3 1-5h1v9 4l5-3 7-1 10-2 11 1-1 6 1 3h4l5-1 8 1 9-2 7 3v2l5 1 5 3 5 4 1-3h2l-2-6 3-6 6-6h3l-1-5-1-4 2-1-4-5v-24l-1-5 1-6h2l1-4 2-2-3-4 8-1h3l6 4 1 3 2 1v2h2v2l6 1h20l-2 2-8 2h-12l-11-2-5 3-3 5-1 11-1 4 4 13 1 3 5 2 3 3v3l-9 3-4 4h-2l-1 11 3 7 1 3v6l-3 2h-3l-8-7-4 1-2 3h-2l-1 7h-2l-2 11-5 5h-9l-14 2-10 5-3 3-1 7h-2v2l-4 2-12 2-1 3-6 3-2 4-2 1-11 1-5 7-9 4h-5l-1 2h-2l-1 4-1 2v12l3 15 1 7-2-2-8-25-7 3-4 5-3 5-5 3v14l-2-4-1-3-3 3-2 10-1 16-1 6-5-1-2-7-2-10-4-15v-3l-6-1h-10l-4 9-4-1-1-10 3-13-2-9-4-4-6-4-4-8-1-5-3-2-12-1-7 1-3-1 1-10-2-7-3-5-3-4v-2h-2v-3l-10-2v-2l-13 1h-11v-1l21-3 16-4 3-3 2-4v-7l1-9v-6l-5-1 2-2 6-1-1-5 5 2 11 8 5 5 7 11 5 3 8 10 1 3h2v2h2l8 10 5 7v2h2l3 3v2l5 2 4 2h10l12-3 6-4 8-3-1-7-12-31-6-2-3-3v-2l5-1-1-9 3 2 4-2-7-3-12-23-10-15-8-9-9-12-11-14-9-9-8-4h-10l-10 2h-8l-2-3v-3l6-3 5-5-1-6-2-3z" fill="#D8A28C"/>
<path transform="translate(752,573)" d="m0 0h17l30 6 48 6 38 5 13 4 3 3-2 21-7 42-5 24-4 4-21-5-26-4-70-6-21-3-5-3-3-8v-20l4-27 6-29 1-7z" fill="#B4B5B2"/>
<path transform="translate(1299,239)" d="m0 0h1v36l-3 53-12-1-10-1h-57l-46 2h-22l-7-1-4-8-2-16v-23l2-31 1-9h2l28 28 13 10 11 9 11 7 5 2h7l6-4 9-9 14-11 19-12 22-13z" fill="#B4B5B2"/>
<path transform="translate(1150,553)" d="m0 0h1v39l-3 50-12-1-11-1h-54l-45 2h-27l-6-2-3-7-2-19v-14l2-36 1-10h2l5 5 7 6 7 8 9 9 17 13 14 11 9 4h7l5-3h2l2-4 12-11 17-12 29-17z" fill="#B4B5B2"/>
<path transform="translate(398,337)" d="m0 0h2v24l-2 45-1 15-1 5-16-2-16-1h-29l-46 2h-45l-4-4-3-16v-35l2-27 1-5h2v2l4 2 23 23 13 10 11 9 10 7 9 3 6-1 6-4 5-6 11-9 14-10 29-17 12-8z" fill="#B4B5B2"/>
<path transform="translate(1670,176)" d="m0 0h2v27l-2 44-2 18-11-1-12-1h-52l-46 2h-14l-1-12-2-4-11-2-9-1-1-1v-34l2-29 1-5 8 6 24 24 12 9 15 12 10 5h8l6-4 11-11 16-12 27-16 19-12z" fill="#B4B5B2"/>
<path transform="translate(770,274)" d="m0 0 2 4-1 44-2 33-1 8-17-2-16-1h-29l-44 2h-29l-2-15-9-2-12-1-1-1v-39l2-26 2-3 12 11 18 18 12 9 15 12 9 5 9 1 6-4 9-9 14-11 19-12 25-15z" fill="#B4B5B2"/>
<path transform="translate(582,570)" d="m0 0 12 1 1 1 3 32 2 37-3 1h-19l-30 3-69 11-9 1h-11l-4-6-3-11-3-23-1-13v-25l9 6 14 11 13 9 14 8 10 6 9 3 7-1 6-5 8-10 11-11 14-11z" fill="#B4B5B2"/>
<path transform="translate(1481,473)" d="m0 0h10l4 1 2 16 3 46v8l-31 1-32 4-48 8-24 3h-5l-4-5-3-10-3-19-2-27v-17l9 5 16 13 18 11 13 8 8 4 3 1h8l6-4 8-10 14-14 17-13z" fill="#B4B5B2"/>
<path transform="translate(1232,329)" d="m0 0h34l6 1 2 32 2 17v6l-30-3-24-4-15-3h-12l-3 2-8 42-2 19-17-1-21-3-15-3-2-1-2-12-5-2-7-1-35-1v-1l15-2 15-1h19v-13l7-2 16-2 25-1h5l1-1-1-26-2-25v-8l32-2z" fill="#B4B4B1"/>
<path transform="translate(752,573)" d="m0 0h17l30 6 48 6 38 5 13 4 3 3-2 21-7 42-5 24-4 4-21-5-26-4-70-6-21-3-5-3-3-8v-20l4-27 6-29 1-7zm-2 14-7 35-2 15v24l2 4 8 2 38 4 49 4 30 5 12 3h3l3-12 8-45 2-14v-8l-23 10-27 12-14 8-14 10-2 1h-8l-9-6-27-27-13-17-7-8z" fill="#B4B5B2"/>
<path transform="translate(679,446)" d="m0 0 5 5 8 9 9 12 6 7 8 7 10 11 10 7 8 1 6-3 12-9 25-13 20-8 3 2 11 1 3 1-1 12-8 44-2 10-2 1-21-5-28-4-61-5-7-1-1-2 1-17-8-3-16-3 2-19 7-36z" fill="#B4B5B2"/>
<path transform="translate(1579,349)" d="m0 0h2l9 11 11 14 10 11 5 4 7 8 8 7 6 3h8l19-13 19-10 21-9 4 1 15 2-1 14-6 34-1 3-6 2-7 8-1 3-14-2-19-3-71-6-4-1v-19l-9-3-13-2-1-1v-10l6-34z" fill="#B4B5B2"/>
<path transform="translate(1392,328)" d="m0 0h2l2 4 10 2 18 1 1 2 2 29v20l-28 1-33 4-48 8-1-6-9-3-27-4-2-5-3-31v-20l11 1 16 13 25 15 14 7h9l5-3 7-9 10-11 11-9z" fill="#B4B5B2"/>
<path transform="translate(492,425)" d="m0 0 6 6 26 1 2 20 1 18v14h-19l-31 3-49 8-10 1-2-6-11-3-25-4-3-19-2-36h8l7 3 8 7 15 10 22 13 8 3h7l6-4 8-10 14-14z" fill="#B4B5B2"/>
<path transform="translate(1122,425)" d="m0 0h1v37l-2 33-1 4-14-1h-53l-24 1h-36l-4-6-2-16v-15l2-30 1-6 8 6 19 19 13 10 10 8 10 4 6-1 5-5 11-10 18-12 22-13z" fill="#B4B5B2"/>
<path transform="translate(1528,257)" d="m0 0h1v44l-2 30-2 1-14-2h-53l-22 1h-36l-3-2-3-12v-35l2-24 8 6 18 18 12 9 14 11 10 3 7-3 12-12 16-11 30-18z" fill="#B4B5B2"/>
<path transform="translate(628,355)" d="m0 0h1v36l-2 35-1 3-25-2h-32l-46 2h-20l-6-2-3-10-1-14 1-29 2-18 4 2 21 21 13 10 10 8 10 5h7l8-7 11-10 15-10 27-16z" fill="#B4B5B2"/>
<path transform="translate(877,489)" d="m0 0 11 7 14 11 14 9 20 12 7 3 8 1 6-3 9-11 7-8 8-7 7-5 3 3 5 1 30 1 1 1 2 34h-32l-8 3-1 6v5l-4 2-56 9-28 4h-11l-4-5-4-16-3-27z" fill="#B4B5B2"/>
<path transform="translate(1651,489)" d="m0 0 5 5 8 9 10 13 6 7 8 7 9 10 9 6 5 2 6 1 2 4 3 1 3 10-3 1 7 3 12 1 10-2 10-5-5-14-1-6v-11l-14 7-12 2 4-4 23-12 34-15 5-3h2l-3 24-7 40-3 15-2 1-13-4v-7l-20 1 11 3-3 1-22-3-20-2-3-7-2-8-11 10 4 3h-17l-37-4-6-2-2-5v-19l3-23 6-29z" fill="#D6A18B"/>
<path transform="translate(1834,303)" d="m0 0 2 1v67l-1 2h-63l-21 1h-41l-3-4-2-11v-30l2-25 4 2 20 20 13 10 10 8 7 4 8 1 6-4 5-6 13-10 21-13 18-11z" fill="#B3B4B1"/>
<path transform="translate(1592,434)" d="m0 0 62 5 26 3 17 3 1 2-2 11-7 6-7-2 5 5-1 7 1 5-9-1-12-2h-12l-5 3-3 17-5 26-3 19-4-2-12-17-9-12-12-14-14-16-3-1 6-36z" fill="#E9C6B6"/>
<path transform="translate(807,401)" d="m0 0 7 6 16 16 26 20 6 3h8l8-7 11-10 19-12 20-12 6-4h2v16l-2 38-1 17-29-2h-20l-43 2h-30l-4-4-2-8v-39z" fill="#B4B5B2"/>
<path transform="translate(1684,577)" d="m0 0h9l17 2 6 9 6 17 2 9v6l-1 2h-2l-2 4-5 12 3-3 4-5 10-1 8-2 1-1-6-5-8-13-7-16-3-9v-4l14 1 2 5 10 1-6-3-1-2 9 3h15v2h-3v2l5-2h8l12 3 3 5-1 2-2 1-1 3h-2v9l1 5v21l4 6h-3l3 5-1 5-4 1-5 5-2 7 1 4-4 4-6-6-8-3-3-3-6-1-7 2-13-1-1 2-4-2-1-5 2-4h-12l-9 2-10 2-4 3 1-9v-13l11-7 6-1 5-10 1-5h-3l-2-4-2-5-1-6h3l-4-7-6-3-4-5-5-3v-2z" fill="#92756A"/>
<path transform="translate(1784,468)" d="m0 0 2 1v2l4 2 8 11 6 11 7 13 10 6 5 5 6 7 5 2 10 7 17 12 7 6 3 7v15l-2 44-6 40-1 12-1 27-2 10-3 8-9 19-3 1-1 6-27 54-16 35-11 23-14 25-9 15-8 16-3 7h-2l-2 9-5 13h-2l1 3h-9l-1-5 2-7 1-4 3-10 3-5 2-15-1-5 6-5 2-6-2-9 3 2v-2l3-2 2-9 4-5 5-5 2-4 1-8 4-7-1-8 4-8 6-2 4-2 4-5 1-4 3-3 2-5 2-1 6-11h2l6-13 3-6 1-10 3 3h4l2-4 6-8 5-7 5-13 5-5 3-6 3-3 2-1v-7l-2-12v-8l2-12 2-10v-2h2l-1-5 1-2h2l-1-10h2l-1-5h2l-1-3v-26l1-5 1-7-1-2h2l-1-7 1-1 1-11h-2l1-11 1-6-5-5-9-6-5-1v-2l-9-3-1-1h-12l-2-5-8 1-5 1v4h-5v-2h-2l-1-4 6 1v-2l-3-6h2l-1-8-8-17-4-5-16-4-15-3-1-2 4-1 3-6 5-7 6-1z" fill="#C7B5AC"/>
<path transform="translate(1516,165)" d="m0 0h25l11 1 96 1 17 1 6 1v2l-14 10-32 19-17 12-12 11-6 6-6 1-9-4-8-6-16-13-10-8-28-28v-5z" fill="#B4B5B1"/>
<path transform="translate(995,542)" d="m0 0h26l10 1 98 1 21 2-2 4-15 10-30 18-14 10-11 9-6 7-6 3-8-2-11-7-9-8-13-10-11-10-7-8-12-11-3-3 1-5z" fill="#B4B5B1"/>
<path transform="translate(1143,228)" d="m0 0h27l11 1 97 1 21 2-2 4-15 10-27 16-16 11-11 9-7 8-3 2h-9l-9-5-13-11-12-9-9-8-7-8-17-16-1-1v-5z" fill="#B4B5B2"/>
<path transform="translate(247,325)" d="m0 0h13l27 2 99 1 13 2-4 5-19 12-22 13-16 11-13 11-6 7-2 1h-7l-10-5-14-12-12-9-9-8-7-8-16-15-1-1v-5z" fill="#B4B5B2"/>
<path transform="translate(620,262)" d="m0 0h12l26 2 98 1 12 1 3 2-10 8-32 19-15 10-14 11-10 10-2 1-9-1-10-6-10-9-12-9-13-12-7-8-8-7-5-5-2-5 2-2z" fill="#B4B6B2"/>
<path transform="translate(260,430)" d="m0 0h15l3 36v21l-26 1-24 3-49 8-8 1h-10l-4-8-3-14-2-25v-18l11 7 11 9 13 8 15 9 5 2h8l6-5 8-10 12-11z" fill="#B4B5B2"/>
<path transform="translate(1118,340)" d="m0 0h2l3 30 2 37-25 1-30 4-12 2h-34l-21-2-3-16-2-25v-16l11 7 8 7 14 9 19 11 3 1h9l3-1 2-4 9-10 9-9 26-20z" fill="#B4B5B2"/>
<path transform="translate(573,502)" d="m0 0 3 1 9 11 8 10 21 21 5 3h8l16-11 16-8 27-12 5-2-3 24-7 38-1 2-11-2-23-4-58-5-20-3-2-2-1-12 3-25z" fill="#B3B5B1"/>
<path transform="translate(1474,404)" d="m0 0 5 5 10 12 7 8 19 19 6 3 7-1 14-10 25-12 18-8 6-2-2 18-5 30-3 15-2 1-21-5-26-3-38-3-24-3-4-4v-20l5-29 2-10z" fill="#B4B4B1"/>
<path transform="translate(293,484)" d="m0 0 7 6 10 13 11 12 12 12 9 5 7-1 14-10 16-8 29-13 6-2-1 15-9 50-3 1-16-4-19-3-46-4-1-10-12-3-22-3v-14l5-29 2-9z" fill="#B4B5B2"/>
<path transform="translate(1193,386)" d="m0 0 7 6 10 13 9 10 15 15 7 4h7l13-9 14-8 30-13 9-4v10l-8 47-2 9-33-6-30-3-16-1-5-1v-9l-8-3-27-4v-11l5-30z" fill="#B4B5B2"/>
<path transform="translate(1581,339)" d="m0 0h15l31 6 64 8 11 2 2 16-12 6-18 8-15 8-13 10-2 1h-6l-9-6-24-24-13-17-9-10-2-3z" fill="#B4B5B2"/>
<path transform="translate(682,436)" d="m0 0h9l18 3 20 4 65 8 7 1 1 1 2 16-27 12-17 9-12 9-5 3-6-1-9-6-9-9-7-8-5-4-9-11-8-10-9-11-1-3z" fill="#B4B5B2"/>
<path transform="translate(1459,459)" d="m0 0h4l3 9 4 2 6 1-1 3-12 9-14 11-13 12-8 10-4 4-2 1-9-1-10-5-18-11-14-10-13-10-9-7-1-5 9-3 45-3z" fill="#B4B5B2"/>
<path transform="translate(555,557)" d="m0 0h8l3 9 5 2 5 1-5 5-14 11-11 9-11 10-10 13-7 2-11-4-20-12-13-9-17-13-8-6-2-2 1-4 7-2 7-1 36-2z" fill="#B4B5B2"/>
<path transform="translate(1231,500)" d="m0 0h2l-3 24-7 38-1 2-18-4-21-3-28-3-1-9-2-2-10-2-34-1-1-3 3-26 2-9h10l1-1h6l9 11 6 5 7 8 9 7 8 1 6-4 14-9 19-9z" fill="#B4B5B1"/>
<path transform="translate(858,332)" d="m0 0 2 4 4 48v6h-21l-13-1h-20l-5 3-1 10-1 1-40 6-11 1-3-3-3-7-3-20v-16l28 3 20 12 3 1h10l9-10 7-8 28-22z" fill="#B4B5B2"/>
<path transform="translate(1758,234)" d="m0 0 2 2 3 31 1 25h-27l-11-1h-14l-6 2-1 7-1 5-37 6-16 1-4-8-3-15-1-10v-12l16 1 13 2 19 11 5 2h7l5-5 12-13 13-11 12-9 11-9z" fill="#B4B5B1"/>
<path transform="translate(982,467)" d="m0 0 2 1 2 21 1 5-11 10-8 7-9 10-6 7-5 1-11-4-20-12-12-8-18-14-9-6-1-5 7-3 6-1 26-1h18l2-2z" fill="#B4B5B2"/>
<path transform="translate(213,537)" d="m0 0h2l11 14 9 10 15 15 4 2h7l13-9 16-8 24-11 3-1v9l-6 35-3 13-26-5-31-3-33-3-10-2-2-7 1-17 4-23z" fill="#B3B4B1"/>
<path transform="translate(502,345)" d="m0 0h12l13 1 79 1 18 1 5 1-5 5-15 10-16 9-17 12-10 9-5 5h-8l-10-6-10-9-9-7-10-9-17-17-1-3 2-2z" fill="#B3B4B1"/>
<path transform="translate(992,416)" d="m0 0h24l11 1 87 1 8 1-2 4-10 7-30 18-13 10-6 5-5 6-7 1-8-4-10-8-14-11-19-19-7-6-1-4z" fill="#B4B5B2"/>
<path transform="translate(1399,248)" d="m0 0h24l12 1 84 1 10 1-1 3-15 10-22 13-14 10-10 9-7 6-7-1-9-5-10-9-13-10-24-24v-4z" fill="#B4B5B2"/>
<path transform="translate(1388,301)" d="m0 0h2l2 18v5l-14 11-12 11-9 10-5 6-2 1h-7l-16-8-13-8-12-8-6-5 4-5 1-18 1-1 20-1z" fill="#B4B5B2"/>
<path transform="translate(484,399)" d="m0 0h6l2 22-12 10-11 9-8 8-8 10-4 3-8-1-12-6-13-8-11-7-9-7v-2l3-1 2-21 35-3z" fill="#B4B5B2"/>
<path transform="translate(1711,294)" d="m0 0h19l12 1 83 1 10 1-2 4-14 9-20 12-13 9-10 9-7 6h-6l-10-6-13-11-10-8-22-22v-4z" fill="#B4B5B2"/>
<path transform="translate(817,391)" d="m0 0 33 2h49l31 1 5 1-4 5-13 8-20 12-14 10-10 9-6 5-9-2-9-7-14-11-12-11-3-3v-2l-4-2-7-6-2-3 1-5z" fill="#B4B5B2"/>
<path transform="translate(1103,335)" d="m0 0h15l-2 4-16 13-16 12-13 12-9 11-2 1-9-1-12-7-16-10-17-13-8-6-1-3 2-2 12-2 33-2 39-5z" fill="#B4B5B2"/>
<path transform="translate(295,475)" d="m0 0h11l26 5 63 8 17 3 2 1v2l-16 8-27 12-14 8-9 7h-7l-6-4-22-22-10-13-9-11z" fill="#B4B5B2"/>
<path transform="translate(1196,377)" d="m0 0 14 1 26 5 63 8 15 3 1 2-16 8-29 13-15 9-8 6-7-1-10-9-17-17-10-13-9-11z" fill="#B4B5B2"/>
<path transform="translate(1215,452)" d="m0 0h3l-3 23-6 32-4 1-19-4-27-3-35-3v-12l2-31h2l7 8 15 15 9 3 7-4 14-9 34-15z" fill="#B3B4B1"/>
<path transform="translate(578,493)" d="m0 0 16 2 21 4 56 7 20 4-4 4-17 8-18 8-15 8-11 8h-6l-8-6-8-9-8-7-13-16-8-10v-4z" fill="#B3B4B1"/>
<path transform="translate(1476,396)" d="m0 0h11l26 5 55 7 22 4v3l-21 10-18 8-15 8-9 7-5 1-8-5-20-20-10-13-9-11z" fill="#B4B5B1"/>
<path transform="translate(1070,500)" d="m0 0h18l20 1 1 5-3 20-1 13-1 1h-66l-6-1-2-30v-7z" fill="#B3B4B1"/>
<path transform="translate(227,418)" d="m0 0h8l5 9 7 2h8v2l-12 9-11 9-10 10-6 8-7 1-10-4-14-9-11-7-14-11-8-6-1-3 5-3 7-1 32-2z" fill="#B4B5B1"/>
<path transform="translate(752,573)" d="m0 0h17l30 6 48 6 38 5 13 4 3 3-2 21-7 42-5 24-4 4-21-5-26-4-70-6-21-3-5-3-3-8v-20l4-27 6-29 1-7zm1 4-1 4 6 8 10 12 8 10 7 8 8 7 9 10 9 6h7l15-11 16-9 41-18 8-5v-2l-20-4-46-6-32-4-31-6zm-3 10-7 35-2 15v24l2 4 8 2 38 4 49 4 30 5 12 3h3l3-12 8-45 2-14v-8l-23 10-27 12-14 8-14 10-2 1h-8l-9-6-27-27-13-17-7-8z" fill="#020203"/>
<path transform="translate(1651,489)" d="m0 0 5 5 8 9 10 13 6 7 8 7 9 10 9 6 4 4-15 3-10 6-4 3-10 3h-11l-10-4-8-13v-15l5-28z" fill="#E8C6B6"/>
<path transform="translate(1161,332)" d="m0 0h14l2 18 2 31v8l-33 2-14 2h-5l-2-22v-9l12-12 17-13z" fill="#B4B5B2"/>
<path transform="translate(846,327)" d="m0 0h12l-6 7-11 9-12 9-13 11-8 9-5 6h-9l-11-6-11-7 1-24 2-6 34-4z" fill="#B4B5B1"/>
<path transform="translate(1739,230)" d="m0 0h19l-6 7-26 20-12 11-7 8-3 4-7 1-9-4-16-10 2-29 55-7z" fill="#B3B5B1"/>
<path transform="translate(215,530)" d="m0 0h11l27 5 49 6 15 3-1 3-12 6-25 11-13 8-5 4-4 1-6-3-5-4-7-8-10-10-10-13-5-6z" fill="#B4B5B1"/>
<path transform="translate(1653,479)" d="m0 0h12l20 4 2 1 2 13 4 11 6 10 9 7 10 3h10l12-2 13-7 3-20 2-6 28 4 11 3-4 4-19 9-21 9-23 12-7 5-7-1 3 4-3 2h-7l-9-6-24-24-12-16-9-10-3-5z" fill="#D29F8A"/>
<path transform="translate(1127,433)" d="m0 0 8 1 16 3 48 6 17 3 1 3-14 7-25 11-11 7-7 5-6-1-8-6-9-10-8-8-3-4v-9z" fill="#B4B5B1"/>
<path transform="translate(1656,574)" d="m0 0 25 2 5 2 3 3 6 5 3 3 4 2 3 4v3h-3l4 9 1 6h3v5l-5 10-4 2-5 1-8 5v5l-2 1-5-13-8-16v-2h-2l-8-11-7-9v-2l-4-1-1-2 1-4h2v-6h2z" fill="#D8A28C"/>
<path transform="translate(1592,434)" d="m0 0 62 5 26 3 17 3 1 2-2 11-7 6-7-2 5 5-1 7 1 5-9-1-12-2-2-4-3-4-1-3-6-2-10-2-5-3-3-2v-3l-4-2-9-6-17-2-10 1-5-3z" fill="#C4B3AA"/>
<path transform="translate(1698,406)" d="m0 0h19l1 1v8l-3 14-6 2-7 8-1 3-14-2-32-5 1-3 5-3h2l2-4 9-8 16-9z" fill="#C6B5AC"/>
<path transform="translate(1131,320)" d="m0 0h5l4 9 4 2 11 1-5 5-16 13-7 6-1 2h-2l-3-24-1-1-9-1-31 3-15 2h-9l-4-4v-4l6-2 41-3z" fill="#B2B2AE"/>
<path transform="translate(1587,432)" d="m0 0h1v11l-7 38-2 1-21-5-15-2-5-2v-1h14l9-4 1-1h-11l2-10 5-10 8-9 4-2v2l4-1 2 2 9 1z" fill="#E9C6B6"/>
<path transform="translate(1795,506)" d="m0 0h2l-3 24-6 35-3 2-3-9-6-2-5-3-3-15-1-12v-3-4l23-10z" fill="#E7C5B5"/>
<path transform="translate(1765,520)" d="m0 0 3 1-1 2 2 1-1 7 2 14 2 8 10 5 3 4 2 4-1 9-2 10-2 1-7-3-6-9-1-5h-2l-3-6-3-5-4-10-1-6v-11l-14 7-12 2 4-4 23-12z" fill="#D7A28D"/>
<path transform="translate(1784,468)" d="m0 0 2 1v2l4 2 8 11 6 11 7 13 10 6 5 5 6 7 4 4-4 9-4-1-1-4-8 1-5 1v4h-5v-2h-2l-1-4 6 1v-2l-3-6h2l-1-8-8-17-4-5-16-4-15-3-1-2 4-1 3-6 5-7 6-1z" fill="#C6B5AD"/>
<path transform="translate(1834,527)" d="m0 0 4 2 15 10 12 9 6 5 3 7v15l-2 44-6 40-1 12-1 27-2 10-3 8-9 19-3 1-1 2-1-4 1-6 3-4 2-6 4-6 2-2 2-1v-7l-2-12v-8l2-12 2-10v-2h2l-1-5 1-2h2l-1-10h2l-1-5h2l-1-3v-26l1-5 1-7-1-2h2l-1-7 1-1 1-11h-2l1-11 1-6-5-5-9-6-5-1v-2l-9-3-1-1h-9l3-10z" fill="#C7B5AC"/>
<path transform="translate(1133,502)" d="m0 0h14l34 3 21 4-3 3-21 11-9 7-5 1-7-4-24-24z" fill="#B3B4B0"/>
<path transform="translate(1543,661)" d="m0 0 5 2 11 8 5 5 7 11 2 3-1 4-6 4-3 1-1 3-5 1-5 2-11-2h-7l-25 4h-11v-1l21-3 16-4 3-3 2-4v-7l1-9v-6l-5-1 2-2 6-1z" fill="#8F7267"/>
<path transform="translate(1499,474)" d="m0 0 42 3v1h-10v3l-5 3-6 9-6 13-3 9-3 23-1 3-4 1-2-35-2-25z" fill="#B4B3B0"/>
<path transform="translate(1758,493)" d="m0 0 28 4 11 3-4 4-19 9-21 9-23 12-7 5-5-1-3-1-1-4v-4l23-2 16-8 3-20z" fill="#D09E8A"/>
<path transform="translate(1656,440)" d="m0 0 17 1 24 4 1 2-2 11-7 6-7-2 5 5-1 7 1 5-9-1-2-6v-6-2l-9-9-14-11-3-3z" fill="#917368"/>
<path transform="translate(1528,644)" d="m0 0 6 5 3 4 9 4 2 3v3l-4-1v4l-6 2 4 4v10l-1 4v6l-2 6-11 4-9 2-4-1 7-4 4-6 1-10 2-6-1-4-2-1-1-2-16-4v-1h12l6-2 1-1 1-13z" fill="#D8A28C"/>
<path transform="translate(1712,549)" d="m0 0h5l2 4 3 1 3 10-3 1 7 3 12 1 10-2 10-5 4 2 1 5h2l7 14-6-1v-7l-20 1 11 3-3 1-22-3-20-2-3-7-2-11 2-7z" fill="#856A60"/>
<path transform="translate(1653,479)" d="m0 0h12l7 2-4 2 1 10 4 5-2 1 9 4 6 8 7 7v2l3 1 8 11 2 6 4 5-5-1-10-9-7-8-8-7-7-8-10-13-10-12-1-4z" fill="#E3C1B1"/>
<path transform="translate(1721,415)" d="m0 0h2l1 4 9 1 4 3 17 2-2 4-3 3 2 5-5 4-9 3-4-1-8-7-6-4v-7z" fill="#E8C5B5"/>
<path transform="translate(1649,439)" d="m0 0 7 1-4 2 13 11 8 7 5 6h-2l2 9 2 2-14-1-2-4-3-4-2-6-8-1-4-9v-4h4l-1-4z" fill="#D7A18C"/>
<path transform="translate(1752,428)" d="m0 0h4v2l4 1 3 6v11l-4 8-4 4-4-2-5-6-10-6-1-2 11-4 4-3v-4l-2-1z" fill="#D6A18B"/>
<path transform="translate(1706,406)" d="m0 0h11l1 1v8l-3 14-6 2-3 2-2-4-7-4 2-4-5-1v-6l2-2 4-3z" fill="#C7B4AB"/>
<path transform="translate(1784,468)" d="m0 0 3 3 12 24-1 2-16-4-15-3-1-2 4-1 3-6 5-7 6-1z" fill="#E7C5B5"/>
<path transform="translate(1765,495)" d="m0 0h9l21 4 2 2-10 6-23 10-3-1 4-1 1-5 1-14z" fill="#E4C2B2"/>
<path transform="translate(1680,423)" d="m0 0 6 1 4 10v2h3v-8l1-2 4-1 7 4 1 5-4 5-1 3-14-2-19-3-1-2h7l2-8 4 1-1-4z" fill="#E5C3B4"/>
<path transform="translate(1524,589)" d="m0 0 1 2-3 3-6 2v2l-11 7-14 10-3 6-5 5-10 8-2 3h-2v2l-8 7-8 10-3 9-2 18h-1v-12l2-12 6-12 31-31 5-10 1 3 13-9 8-6 8-4z" fill="#C7B6AD"/>
<path transform="translate(1723,406)" d="m0 0 10 3 12 6v2l5 2 3 4 5 2v2l4 2 3 10-2 1-4-9-3-1v-2l-4-1 1-1-16-2-7-4-6-1-2-4z" fill="#C6B5AC"/>
<path transform="translate(1742,539)" d="m0 0h5l-2 5-4 1 2 10h5l-2 5-4 1h-14l-3-2v-3h2l-2-10-3-2 4-3z" fill="#C2B1A8"/>
<path transform="translate(1572,465)" d="m0 0h8l2 5-1 11-2 1-21-5-15-2-5-2v-1h14l9-4z" fill="#E3C1B2"/>
<path transform="translate(1772,465)" d="m0 0h9l3 3v5l-6 2-5 7-3 6-3 2-8-1 2-10-2-1 3-5 8-7z" fill="#D7A28C"/>
<path transform="translate(1761,562)" d="m0 0 4 2 1 5h2l7 14-6-1v-7l-27 1-4-2 1-1h5v-2l-3-2 10-2z" fill="#82685F"/>
<path transform="translate(1754,535)" d="m0 0h1l3 18-9 6-4-2v-1l-3-1-2-10 5-2v-4l3-2z" fill="#93766B"/>
<path transform="translate(1671,442)" d="m0 0h9l17 3 1 2-2 11-4 2-1-2-7-3-10-7z" fill="#D6A28D"/>
<path transform="translate(1585,424)" d="m0 0 4 2v10l-4 5-9-1-3-2-4-1h-3l8-6 4-1 1-4z" fill="#C6B5AC"/>
<path transform="translate(1661,597)" d="m0 0 4 4 6 8v2h2l8 16 5 11 1 10h-3l1-2-2-5-3-2-6-16-6-9-7-12-1-4z" fill="#C7B6AD"/>
<path transform="translate(1631,681)" d="m0 0 3 2 5 1 5 12 8 20 1 7-5 2 2-5h-2l-2-3-2-12-8-13-5-8z" fill="#C7B6AD"/>
<path transform="translate(1682,483)" d="m0 0 5 1 2 13 4 11-2 4-10-10 2-2-4-8-2-8z" fill="#93756A"/>
<path transform="translate(1741,617)" d="m0 0h20l3 3-1 4-5 3h-8l-8-4-2-5z" fill="#020203"/>
<path transform="translate(1706,406)" d="m0 0h11l-1 3-10 4h-3v9l4 2-2 2h-7v-3l1-2-5-1v-6l2-2 4-3z" fill="#D8A28C"/>
<path transform="translate(1560,571)" d="m0 0 11 6 10 8 12 13 13 18 9 11 1 4-5-5-10-12-12-16-11-12-8-6-12-3 1-2h2z" fill="#93756A"/>
<path transform="translate(1586,477)" d="m0 0 4 2 12 13 11 13 10 13 8 12 5 7v2h2v2l-4-2-12-17-9-12-12-14-7-8-8-9z" fill="#93756A"/>
<path transform="translate(1215,491)" d="m0 0 17 3v3l-19 9-2-1 3-13z" fill="#B2B0AC"/>
<path transform="translate(1611,735)" d="m0 0 7 4 2 6v6l-4 2 1 9-2 20h-1l-1-29-2-12z" fill="#93756A"/>
<path transform="translate(1740,526)" d="m0 0 2 1-16 10-3 2-5-1-3-1-1-4v-4l23-2z" fill="#C3B2A9"/>
<path transform="translate(1734,594)" d="m0 0h23v8l-5 2-9-1-2-5-6-1z" fill="#0F0D0D"/>
<path transform="translate(1822,520)" d="m0 0 5 1 9 8-4 10-4-1-3-5-3-2z" fill="#D9A38D"/>
<path transform="translate(1585,471)" d="m0 0 1 4 4 2 4 4v2l4 2 8 8 7 8 10 15-1 2-10-13-8-9-7-8-9-10-2-1v2h-2z" fill="#D7A18C"/>
<path transform="translate(1726,569)" d="m0 0h9l11 1-2 1v2l-5 1 19 4 2 2-25-3-5-2v-3l-4-2z" fill="#B2A59E"/>
<path transform="translate(1772,465)" d="m0 0 4 1-4 4-4 6-5 9h-3l1-6-2-1 3-5 8-7z" fill="#93756A"/>
<path transform="translate(1763,625)" d="m0 0 2 1 2 8-7 1v-2h-10l-7-3 2-2 13 1 2-3z" fill="#020203"/>
<path transform="translate(1745,543)" d="m0 0 5 1 1 1v7l-6 4-3-1-2-10z" fill="#020203"/>
<path transform="translate(1641,550)" d="m0 0 3 3 6 9 3 4v2h-8l-3-3-1-3z" fill="#E1BDAC"/>
<path transform="translate(1712,549)" d="m0 0h5l2 4 3 1 3 10h-5l-2-4-4-2v-3h-2z" fill="#98786C"/>
<path transform="translate(1746,529)" d="m0 0 3 1 3 2-8 5-6 2-9 1 4-4z" fill="#C3B2A9"/>
<path transform="translate(1512,506)" d="m0 0 1 3-3 12-2 17-1 3h-3v-12l3-7 4-14z" fill="#C7B6AD"/>
<path transform="translate(1855,715)" d="m0 0h2l-3 9-7 14-2-1 1-9 3-4 2-6z" fill="#D9A38D"/>
<path transform="translate(1738,609)" d="m0 0h22l1 3-2 1h-14l-1 3-5-2z" fill="#020203"/>
<path transform="translate(1632,659)" d="m0 0 9 6 7 3 4 2-10 7h-2l-1 2-1-5 6-4-3-2-7-3z" fill="#93756A"/>
<path transform="translate(1572,465)" d="m0 0h8l2 5v6l-1-2-4-2-7-3-7-1 4-2z" fill="#D5A08B"/>
<path transform="translate(621,275)" d="m0 0 8 6 11 10 7 8 3 4-4-2-12-11-7-8-6-5z" fill="#D5B5A7"/>
<path transform="translate(1490,706)" d="m0 0 16 1v1l-31 2h-8v-2z" fill="#CD9B87"/>
<path transform="translate(1562,466)" d="m0 0 2 1-12 6h-7l-3-2 9-4z" fill="#C7B5AC"/>
<path transform="translate(1737,604)" d="m0 0h22v3l-2 1h-16l-4-1z" fill="#020203"/>
<path transform="translate(1740,526)" d="m0 0 2 1-10 6-13-2-4-2 22-2z" fill="#D5BBAF"/>
<path transform="translate(1641,543)" d="m0 0h1l3 9 7 10 6 5v2l4 1-13-1 4-1-12-18z" fill="#9A7A6D"/>
<path transform="translate(1747,642)" d="m0 0h21l-1 4h-16l-4-2z" fill="#020203"/>
<path transform="translate(1718,580)" d="m0 0 5 1 3 5-1 3h-2v4h-2l-3-9z" fill="#644F48"/>
<path transform="translate(1716,579)" d="m0 0h2l3 11v3h2v-4l3 1 1 3h-3v2l4 1-3 1-2-1-1 2-4-9-2-6z" fill="#AA8475"/>
<path transform="translate(1698,518)" d="m0 0 9 6 4 7-2 2-10-10z" fill="#93756A"/>
<path transform="translate(1754,424)" d="m0 0 4 1v2l4 2 3 10-2 1-4-9-3-1v-2l-4-1z" fill="#C7B6AD"/>
<path transform="translate(1676,442)" d="m0 0 10 1 11 2 1 2-1 3-4-2-16-4z" fill="#D3B4A6"/>
<path transform="translate(1700,566)" d="m0 0 2 1-3 3 4 3h-17l4-3z" fill="#93756A"/>
<path transform="translate(1667,667)" d="m0 0h6l-5 4h-2l-1 3-2 1-3 6-2-2 3-6 4-5z" fill="#93756A"/>
<path transform="translate(1712,549)" d="m0 0h5l2 4 3 1 1 4-11-3z" fill="#B28979"/>
<path transform="translate(1761,448)" d="m0 0 1 3-6 8h-4l-2-4 6-3v2l4-4z" fill="#93756A"/>
<path transform="translate(1742,539)" d="m0 0h5l-2 5-7 2-2-4 1-2z" fill="#B9ACA4"/>
<path transform="translate(1556,662)" d="m0 0 4 1 2 8-3 1-5-5v-4z" fill="#D9A38D"/>
<path transform="translate(1669,595)" d="m0 0 5 3 3 5-1 7-3-4-4-8z" fill="#EBC8B8"/>
<path transform="translate(1643,553)" d="m0 0 4 5 6 8-3 1-5-5-2-5z" fill="#D9A38D"/>
<path transform="translate(1166,256)" d="m0 0 7 6 10 8-3 1-10-9-4-3z" fill="#D4B8AB"/>
<path transform="translate(1749,646)" d="m0 0 16 2-1 3h-9l-6-3z" fill="#020203"/>
<path transform="translate(1816,533)" d="m0 0h2v2l-4 1v4h-5v-2h-2l-1-4 6 1z" fill="#D9A38D"/>
<path transform="translate(1767,569)" d="m0 0 2 2 6 12-6-1v-7l-2-1z" fill="#93756A"/>
<path transform="translate(1623,439)" d="m0 0h8l3 4-3 2-8-3z" fill="#D9A38D"/>
<path transform="translate(1589,714)" d="m0 0 2 1v3l-9 5v-3z" fill="#93756A"/>
<path transform="translate(1757,652)" d="m0 0 10 1-4 4-5 1z" fill="#060506"/>
<path transform="translate(1747,620)" d="m0 0h9l1 3-7 1-3-1z" fill="#ADA7A2"/>
<path transform="translate(1742,555)" d="m0 0h6l-2 5-7 1v-4z" fill="#AEA9A4"/>
<path transform="translate(1646,735)" d="m0 0 1 2-1 16-2-4-1-11z" fill="#93756A"/>
<path transform="translate(1731,562)" d="m0 0 6 2 2-2 1 1v5h-3v-2h-3l-2 2-1-1z" fill="#B79E93"/>
<path transform="translate(1604,429)" d="m0 0h7l4 1v2l-18-1v-1z" fill="#B6A39A"/>
<path transform="translate(1735,535)" d="m0 0 7 1-1 2-12 2 4-4z" fill="#CEB5A9"/>
<path transform="translate(1531,700)" d="m0 0h7l-4 3-10 1 1-2z" fill="#7F655B"/>
<path transform="translate(1752,526)" d="m0 0 3 3v2l-6 1-1-4z" fill="#97796D"/>
</svg>
